<svg xmlns="http://www.w3.org/2000/svg" xmlns:xlink="http://www.w3.org/1999/xlink" viewBox="0 0 173 46"><path d="M17.9 42.4c6.8-1 11.5-6.5 12.2-12.5.5.9.9 2.6.9 4.1 0 5.3-4.3 8.8-9.6 8.8-1.7 0-3.1-.3-3.5-.4m16-28c-.4-.3-1.6-1.1-2.5-1.7-3.3-2.2-5.8-3.5-5.8-5.9 0-1.5 1.2-2.6 2.8-2.6 2.9 0 6.3 2.6 6.3 2.6C39.9 10.6 43 16.6 43 23c0 2.5-.4 4.4-.7 5.3 0-2.9-1.7-9.5-8.4-13.9M6.7 34.7C4.3 31.3 3 27.3 3 23 3 12 11.4 4.2 20.7 3.1c-.2.1-2.5 1.6-2.5 5.2 0 3.3 2.3 6.2 4.2 8.9.5.7.9 1.4 1.5 2.2 1.5 2.3 3.3 5.3 3.3 8.8 0 6.3-5.1 11.2-11.2 11.2-5.4.1-8-2.9-9.3-4.7M0 23c0 12.7 10.3 23 23 23s23-10.3 23-23S35.7 0 23 0 0 10.3 0 23" fill="#333"/><defs><path id="a" d="M0 0h173v45.9H0z"/></defs><clipPath id="b"><use height="100%" width="100%" xlink:href="#a" overflow="visible"/></clipPath><path clip-path="url(#b)" d="M123.7 32.9c0 1.2-.7 2.2-2.2 2.2-1.5 0-2.2-1-2.2-2.2v-7.4c0-2-1-3.7-3.3-3.7-1.7 0-2.9 1-3.8 1.7v9.4c0 1.2-.7 2.2-2.2 2.2-1.5 0-2.2-1-2.2-2.2V18.7h3.8l.3 1.9c.7-.6 2.7-2.4 5.8-2.4 2.8 0 6.1 1.6 6.1 5.8v8.9zm-42-2.4c0 .9.7 1.5 1.5 1.5 1.4 0 1.8-1.1 2.8-1.1.9 0 1.4.7 1.4 1.4 0 1.5-1.8 2.8-5 2.8-3.6 0-5.2-2.1-5.2-4.8v-8.5h-2.9v-3.2h2.9V15l4.5-1.2v4.9h5.9l-1.1 3.2h-4.8v8.6zm51.1 0c0 .9.7 1.5 1.5 1.5 1.4 0 1.8-1.1 2.9-1.1.9 0 1.4.7 1.4 1.4 0 1.5-1.8 2.8-5 2.8-3.6 0-5.2-2.1-5.2-4.8v-8.5h-2.9v-3.2h2.9V15l4.5-1.2v4.9h5.9l-1.1 3.2h-4.8zm-76 .7c0-1 .8-1.7 1.7-1.7 1.5 0 2.6 2.1 6.4 2.1 2.3 0 4-1 4-2.7 0-1.5-1.2-2.4-3.1-3.3-.6-.3-1.7-.8-2.4-1.1-2.6-1.2-5.2-2.9-5.2-6.3 0-3.3 2.9-6.1 8-6.1 3.7 0 5.9 1 6.4 1.3l-1.1 3.3c-.6-.3-2.8-1.1-5.1-1.1-1.7 0-3.4.8-3.4 2.5 0 1.6 1.4 2.3 3.2 3.2.6.3 1.1.5 1.7.8 2.8 1.3 5.8 2.8 5.8 6.5 0 4-3.8 6.5-8.8 6.5-4.6 0-8.1-1.9-8.1-3.9m110.1 3.9c-5.8 0-9.2-3.8-9.2-8.4 0-4.8 3.5-8.4 9.2-8.4 3.3 0 5.1 1.2 5.4 1.4l-1 2.9c-.3-.2-1.8-1.2-4-1.2-3.3 0-5 2.4-5 5.3s1.8 5.3 4.8 5.3c2.3 0 3.2-1.5 4.4-1.5.9 0 1.5.7 1.5 1.5 0 1.6-2.8 3.1-6.1 3.1m-14.5-4.5c-1.2 0-2.1 1.5-4.3 1.5-2.3 0-4-1.8-4.2-3.8h11.4v-1c0-5.3-2.9-9-7.9-9-5.1 0-8 3.6-8 8.4 0 4.3 2.6 8.4 8.6 8.4 3.4 0 6-1.5 6-3 0-.8-.5-1.5-1.6-1.5m-5.1-9.2c2.7 0 3.4 2.2 3.4 4h-6.9c0-2 1-4 3.5-4m-43.6 8.7v-5.3c0-3.9-2.4-6.5-7.6-6.5-3.6 0-6.1 1.3-6.6 1.6l1.3 2.7c.3-.1 2.4-1.1 4.4-1.1 2.8 0 4.1 1.5 4.1 3v.2l-2.8.1c-4.1.2-7.6 1.5-7.6 5.3 0 3.1 2.5 5.1 5.9 5.1 2.9 0 4.4-1.5 4.9-2 .1.3.6 2 2.7 2 1 0 1.6-.4 1.6-1.3 0-1.1-.3-1.7-.3-3.8m-4.5.7c-.3.2-1.5 1.2-3.2 1.2-1.6 0-2.6-1-2.6-2.3 0-1.5 1.2-2.2 3.7-2.3l2.1-.1z" fill="#333"/></svg>